#tb 0: 1/1
#media_type 0: video
#codec_id 0: fits
#dimensions 0: 72x36
#sar 0: 0/1
0,          0,          0,        1,     5680, 0x64c89d68
0,          1,          1,        1,     5680, 0x18f7d704
0,          2,          2,        1,     5680, 0xaed474b9
0,          3,          3,        1,     5680, 0x251eb043
0,          4,          4,        1,     5680, 0x936b955e
